<?xml version="1.0" encoding="utf-8"?>
<!-- Generator: Adobe Illustrator 26.3.1, SVG Export Plug-In . SVG Version: 6.00 Build 0)  -->
<svg version="1.1" id="image" xmlns="http://www.w3.org/2000/svg" xmlns:xlink="http://www.w3.org/1999/xlink" x="0px" y="0px"
	 viewBox="0 0 362 101" style="enable-background:new 0 0 362 101;" xml:space="preserve" width="362" height="101">
<style type="text/css">
	.st0{fill:#FFFFFF;}
</style>
<g>
	<path class="st0" d="M0.9,0.2C1.6,0.1,2.4,0,3.3,0c1.6,0,2.8,0.4,3.5,1.1C7.6,1.8,8,2.8,8,4.2S7.7,6.9,6.9,7.7S4.7,9,3,9
		C2.2,9,1.5,9,0.9,8.9C0.9,8.9,0.9,0.2,0.9,0.2z M2.1,8c0.3,0,0.7,0,1.1,0c2.4,0,3.7-1.3,3.7-3.7c0-2.1-1.2-3.4-3.5-3.4
		c-0.6,0-1,0-1.3,0.1C2.1,1,2.1,8,2.1,8z"/>
	<path class="st0" d="M13.1,8.9L13,8.1l0,0C12.6,8.6,12,9,11.1,9C9.8,9,9.2,8.1,9.2,7.2c0-1.5,1.4-2.4,3.8-2.3V4.8
		c0-0.5-0.1-1.5-1.4-1.5c-0.6,0-1.2,0.2-1.6,0.5L9.5,3c0.5-0.3,1.3-0.5,2.1-0.5c1.9,0,2.4,1.3,2.4,2.6v2.3c0,0.5,0,1.1,0.1,1.5H13.1
		L13.1,8.9z M12.9,5.7c-1.2,0-2.7,0.2-2.7,1.4c0,0.8,0.5,1.1,1.1,1.1c0.8,0,1.4-0.5,1.5-1.1c0-0.1,0.1-0.2,0.1-0.4
		C12.9,6.8,12.9,5.7,12.9,5.7z"/>
	<path class="st0" d="M17.2,0.8v1.8h1.6v0.9h-1.6v3.4c0,0.8,0.2,1.2,0.9,1.2c0.3,0,0.5,0,0.7-0.1v0.9c-0.2,0.1-0.6,0.2-1,0.2
		c-0.5,0-1-0.2-1.2-0.5c-0.3-0.4-0.4-0.9-0.4-1.6V3.5h-1V2.6h1V1.1L17.2,0.8L17.2,0.8z"/>
	<path class="st0" d="M20.8,5.9c0,1.5,1,2.2,2.1,2.2c0.8,0,1.3-0.1,1.7-0.3l0.2,0.8C24.4,8.8,23.7,9,22.7,9c-1.9,0-3.1-1.3-3.1-3.2
		s1.1-3.4,3-3.4c2,0,2.6,1.8,2.6,3c0,0.2,0,0.4,0,0.5L20.8,5.9L20.8,5.9z M24.1,5.1c0-0.7-0.3-1.8-1.6-1.8c-1.2,0-1.7,1-1.8,1.8
		H24.1L24.1,5.1z"/>
	<path class="st0" d="M29,3.6c0-0.5,0.3-0.8,0.8-0.8s0.8,0.3,0.8,0.8s-0.3,0.8-0.8,0.8S29,4.1,29,3.6z M29,8.2
		c0-0.5,0.3-0.8,0.8-0.8s0.8,0.3,0.8,0.8c0,0.4-0.3,0.8-0.8,0.8S29,8.7,29,8.2z"/>
	<path class="st0" d="M18,22.6c0,6.1-3.7,9.6-8.7,9.6s-8.4-3.9-8.4-9.3s3.5-9.5,8.7-9.5S18,17.4,18,22.6z M4.4,22.9
		c0,3.7,1.9,6.7,5.1,6.7s5-3,5-6.8c0-3.4-1.7-6.7-5-6.7S4.4,19.1,4.4,22.9z"/>
	<path class="st0" d="M30.4,31.5c-0.7,0.3-2.1,0.7-3.7,0.7c-4.1,0-6.8-2.6-6.8-6.7s2.7-7,7.3-7c1.2,0,2.5,0.3,3.2,0.6l-0.6,2.5
		c-0.5-0.3-1.3-0.5-2.5-0.5c-2.5,0-4,1.9-4,4.3c0,2.7,1.8,4.2,4,4.2c1.1,0,2-0.2,2.6-0.5L30.4,31.5L30.4,31.5z"/>
	<path class="st0" d="M36.7,15v3.7h3.2v2.5h-3.2V27c0,1.6,0.4,2.4,1.7,2.4c0.6,0,1-0.1,1.3-0.1l0.1,2.5c-0.5,0.2-1.4,0.3-2.4,0.3
		c-1.2,0-2.2-0.4-2.9-1.1c-0.7-0.8-1-2-1-3.7v-6.2h-1.9v-2.4h1.9v-3L36.7,15L36.7,15z"/>
	<path class="st0" d="M54.8,25.2c0,4.8-3.4,7-6.8,7c-3.7,0-6.6-2.6-6.6-6.8s2.8-7,6.8-7S54.8,21.2,54.8,25.2L54.8,25.2z M44.9,25.3
		c0,2.5,1.3,4.4,3.3,4.4s3.2-1.8,3.2-4.5c0-2.1-0.9-4.4-3.2-4.4S44.9,23.1,44.9,25.3L44.9,25.3z"/>
	<path class="st0" d="M57.5,31.9c0.1-0.9,0.1-2.3,0.1-3.7V12.7h3.3v7.8l0,0c0.8-1.3,2.2-2.1,4.2-2.1c3.2,0,5.5,2.7,5.5,6.7
		c0,4.7-3,7.1-6,7.1c-1.7,0-3.2-0.6-4.1-2.3h-0.1l-0.2,2C60.3,31.9,57.5,31.9,57.5,31.9z M60.9,26.4c0,0.3,0,0.5,0.1,0.8
		c0.3,1.4,1.5,2.3,2.9,2.3c2.1,0,3.3-1.7,3.3-4.3c0-2.3-1.1-4.2-3.3-4.2c-1.3,0-2.6,1-2.9,2.4c-0.1,0.3-0.1,0.5-0.1,0.9L60.9,26.4
		L60.9,26.4z"/>
	<path class="st0" d="M75.7,26.2c0.1,2.4,1.9,3.4,4.1,3.4c1.5,0,2.6-0.2,3.6-0.6l0.5,2.3c-1.1,0.5-2.7,0.8-4.6,0.8
		c-4.3,0-6.8-2.6-6.8-6.7c0-3.6,2.2-7.1,6.4-7.1s5.7,3.5,5.7,6.4c0,0.6-0.1,1.1-0.1,1.4L75.7,26.2L75.7,26.2z M81.5,23.9
		c0-1.2-0.5-3.2-2.7-3.2c-2,0-2.9,1.9-3,3.2H81.5z"/>
	<path class="st0" d="M87.3,23c0-1.8,0-3-0.1-4.2h2.9l0.1,2.5h0.1c0.7-1.9,2.2-2.8,3.6-2.8c0.3,0,0.5,0,0.8,0.1v3.1
		c-0.3-0.1-0.6-0.1-1-0.1c-1.6,0-2.7,1-3,2.5c-0.1,0.3-0.1,0.6-0.1,1v6.8h-3.3V23L87.3,23z"/>
	<path class="st0" d="M112,31.9v-6h-10.6V23L111,8.5h5.2v14.1h3V26h-3v5.9H112L112,31.9z M112,22.6v-6.4c0-1.3,0.1-2.7,0.1-4.1H112
		c-0.7,1.5-1.3,2.7-2.1,3.9l-4.3,6.4v0.1L112,22.6L112,22.6z"/>
	<path class="st0" d="M133,13.2c-1.7,2.6-3,6.1-3,11s1.3,8.3,3,10.9h-2.4c-1.6-2.2-3.3-5.7-3.3-10.9c0-5.3,1.7-8.8,3.3-11
		C130.6,13.2,133,13.2,133,13.2z"/>
	<path class="st0" d="M138.6,31.9l-4.5-18.2h3.5l1.7,8.3c0.4,2.2,0.9,4.5,1.2,6.3h0.1c0.3-1.9,0.8-4.1,1.3-6.4l2-8.2h3.5l1.8,8.4
		c0.4,2.1,0.8,4.2,1.1,6.1h0.1c0.3-2,0.8-4.1,1.2-6.3l1.9-8.2h3.4L152,31.9h-3.6l-1.9-8.6c-0.5-2-0.8-3.8-1-5.8h-0.1
		c-0.3,2-0.7,3.7-1.2,5.8l-2.1,8.6L138.6,31.9L138.6,31.9z"/>
	<path class="st0" d="M161.3,26.2c0.1,2.4,1.9,3.4,4.1,3.4c1.5,0,2.6-0.2,3.6-0.6l0.5,2.3c-1.1,0.5-2.7,0.8-4.6,0.8
		c-4.3,0-6.8-2.6-6.8-6.7c0-3.6,2.2-7.1,6.4-7.1s5.7,3.5,5.7,6.4c0,0.6-0.1,1.1-0.1,1.4L161.3,26.2L161.3,26.2z M167.1,23.9
		c0-1.2-0.5-3.2-2.7-3.2c-2,0-2.9,1.9-3,3.2H167.1z"/>
	<path class="st0" d="M185,12.7v15.5c0,1.4,0.1,2.8,0.1,3.7h-3l-0.1-2.1l0,0c-0.8,1.5-2.4,2.4-4.3,2.4c-3.1,0-5.6-2.7-5.6-6.7
		c0-4.4,2.7-7,5.9-7c1.8,0,3.1,0.7,3.7,1.7h0.1v-7.5H185L185,12.7z M181.7,24.2c0-0.3,0-0.6-0.1-0.9c-0.3-1.3-1.4-2.3-2.9-2.3
		c-2.1,0-3.3,1.9-3.3,4.3s1.2,4.2,3.3,4.2c1.4,0,2.5-0.9,2.9-2.4c0.1-0.3,0.1-0.6,0.1-1V24.2L181.7,24.2z"/>
	<path class="st0" d="M187.6,35.1c1.7-2.6,3-6.1,3-11s-1.3-8.3-3-10.9h2.4c1.6,2.1,3.3,5.6,3.3,10.9s-1.7,8.8-3.3,11H187.6
		L187.6,35.1z"/>
	<path class="st0" d="M213.2,24v2.1h-11.9V24H213.2z"/>
	<path class="st0" d="M235.4,11.6c-0.6,0-1.4,0-2.2,0.1c-4.9,0.6-7.3,3.6-7.9,6.8h0.1c1.1-1.3,2.9-2.2,5.3-2.2c4,0,7.2,2.9,7.2,7.6
		c0,4.5-3.3,8.4-8.2,8.4c-5.7,0-8.8-4.3-8.8-10.1c0-4.5,1.6-8.2,4.1-10.5c2.1-2,5-3.2,8.3-3.5c1-0.1,1.7-0.1,2.2-0.1L235.4,11.6
		L235.4,11.6z M233.3,24.2c0-2.7-1.5-4.6-4.1-4.6c-1.7,0-3.1,1-3.8,2.4c-0.2,0.3-0.3,0.8-0.3,1.4c0.1,3.1,1.5,5.6,4.4,5.6
		C231.8,29,233.3,27,233.3,24.2L233.3,24.2z"/>
	<path class="st0" d="M253.7,13.2c-1.7,2.6-3,6.1-3,11s1.3,8.3,3,10.9h-2.4c-1.6-2.2-3.3-5.7-3.3-10.9c0-5.3,1.7-8.8,3.3-11
		C251.3,13.2,253.7,13.2,253.7,13.2z"/>
	<path class="st0" d="M256.4,13.7h10.5v2.7h-7.2v5h6.7v2.7h-6.7v7.7h-3.3V13.7L256.4,13.7z"/>
	<path class="st0" d="M270,23c0-1.8,0-3-0.1-4.2h2.9l0.1,2.5h0.1c0.6-1.9,2.2-2.8,3.6-2.8c0.3,0,0.5,0,0.8,0.1v3.1
		c-0.3-0.1-0.6-0.1-1-0.1c-1.6,0-2.7,1-3,2.5c-0.1,0.3-0.1,0.6-0.1,1v6.8H270V23L270,23z"/>
	<path class="st0" d="M283.1,15.1c0,1-0.7,1.8-1.9,1.8c-1.1,0-1.8-0.8-1.8-1.8c0-1,0.7-1.8,1.9-1.8S283.1,14,283.1,15.1L283.1,15.1z
		 M279.6,31.9V18.7h3.3v13.1C283,31.9,279.6,31.9,279.6,31.9z"/>
	<path class="st0" d="M285.5,35.1c1.7-2.6,3-6.1,3-11s-1.3-8.3-3-10.9h2.4c1.6,2.1,3.3,5.6,3.3,10.9s-1.7,8.8-3.3,11H285.5
		L285.5,35.1z"/>
	<path class="st0" d="M293.1,35.2c0.7-2,1.5-4.9,1.8-7.1l3.5-0.3c-0.8,2.5-2,5.5-3,7.2C295.4,34.9,293.1,35.2,293.1,35.2z"/>
	<path class="st0" d="M306,31.9v-2l2.1-1.9c4.1-3.8,6.1-5.9,6.1-8.2c0-1.6-0.8-3-3.1-3c-1.5,0-2.9,0.8-3.8,1.5l-1-2.4
		c1.3-1,3.2-1.8,5.4-1.8c3.9,0,5.8,2.5,5.8,5.3c0,3.1-2.2,5.6-5.3,8.4l-1.5,1.3l0,0h7.2v2.7L306,31.9L306,31.9z"/>
	<path class="st0" d="M332.9,23c0,5.6-2.2,9.2-6.4,9.2s-6.2-3.7-6.2-9c0-5.5,2.3-9.1,6.4-9.1S332.9,17.8,332.9,23z M323.6,23.2
		c0,4.3,1.2,6.5,3,6.5c2,0,3-2.4,3-6.6s-1-6.5-3-6.5C324.8,16.6,323.6,18.8,323.6,23.2z"/>
	<path class="st0" d="M335,31.9v-2l2.1-1.9c4.1-3.8,6.1-5.9,6.1-8.2c0-1.6-0.8-3-3.1-3c-1.5,0-2.9,0.8-3.8,1.5l-1-2.4
		c1.3-1,3.2-1.8,5.4-1.8c3.9,0,5.8,2.5,5.8,5.3c0,3.1-2.2,5.6-5.3,8.4l-1.5,1.3l0,0h7.2v2.7L335,31.9L335,31.9z"/>
	<path class="st0" d="M350.1,28.5c0.7,0.4,2.3,1.1,4,1.1c2.5,0,3.6-1.4,3.5-2.8c0-2.1-2-3-4-3h-1.5v-2.4h1.5c1.5,0,3.5-0.7,3.5-2.4
		c0-1.2-0.9-2.2-2.8-2.2c-1.4,0-2.9,0.6-3.6,1.1l-0.8-2.4c1-0.7,3-1.3,5-1.3c3.6,0,5.5,2,5.5,4.3c0,1.8-1.1,3.3-3.2,4.1l0,0
		c2.1,0.4,3.9,2,3.9,4.4c0,3-2.5,5.3-6.8,5.3c-2.1,0-4-0.6-4.9-1.2L350.1,28.5L350.1,28.5z"/>
	<path class="st0" d="M2.9,56.9L0,48.1h1.2l1.4,4.3c0.4,1.2,0.7,2.3,0.9,3.3l0,0c0.2-1,0.6-2.1,1-3.2L6,48.1h1.2l-3.1,8.8L2.9,56.9
		L2.9,56.9z"/>
	<path class="st0" d="M8.8,53.9c0,1.5,1,2.2,2.2,2.2c0.8,0,1.3-0.2,1.7-0.3l0.2,0.8c-0.4,0.2-1.1,0.4-2.1,0.4
		c-1.9,0-3.1-1.3-3.1-3.2s1.1-3.4,3-3.4c2.1,0,2.6,1.8,2.6,3c0,0.2,0,0.4,0,0.5H8.8L8.8,53.9z M12.1,53.1c0-0.7-0.3-1.8-1.6-1.8
		c-1.2,0-1.7,1.1-1.8,1.8H12.1L12.1,53.1z"/>
	<path class="st0" d="M14.7,52.3c0-0.7,0-1.2-0.1-1.7h1l0.1,1l0,0c0.3-0.6,1-1.2,2.1-1.2c0.9,0,2.2,0.5,2.2,2.7v3.8h-1.1v-3.6
		c0-1-0.4-1.9-1.5-1.9c-0.8,0-1.3,0.5-1.5,1.2c-0.1,0.1-0.1,0.3-0.1,0.5v3.8h-1.1L14.7,52.3L14.7,52.3z"/>
	<path class="st0" d="M27.1,55.2c0,0.7,0,1.2,0,1.7h-1l-0.1-1l0,0c-0.3,0.5-1,1.2-2.1,1.2c-1,0-2.2-0.6-2.2-2.8v-3.7H23v3.5
		c0,1.2,0.4,2,1.4,2c0.8,0,1.3-0.5,1.5-1.1c0.1-0.1,0.1-0.3,0.1-0.6v-3.8h1.1V55.2L27.1,55.2z"/>
	<path class="st0" d="M29.7,53.9c0,1.5,1,2.2,2.1,2.2c0.8,0,1.3-0.2,1.7-0.3l0.2,0.8c-0.4,0.2-1.1,0.4-2.1,0.4
		c-1.9,0-3.1-1.3-3.1-3.2s1.1-3.4,3-3.4c2,0,2.6,1.8,2.6,3c0,0.2,0,0.4,0,0.5H29.7L29.7,53.9z M33,53.1c0-0.7-0.3-1.8-1.6-1.8
		c-1.2,0-1.7,1.1-1.8,1.8H33L33,53.1z"/>
	<path class="st0" d="M37.9,51.6c0-0.5,0.3-0.8,0.8-0.8s0.8,0.3,0.8,0.8c0,0.4-0.3,0.8-0.8,0.8S37.9,52.1,37.9,51.6z M37.9,56.2
		c0-0.5,0.3-0.8,0.8-0.8s0.8,0.3,0.8,0.8c0,0.4-0.3,0.8-0.8,0.8S37.9,56.7,37.9,56.2z"/>
	<path class="st0" d="M5.2,61.7V69h7.7v-7.3h3.3v18.2h-3.3v-8H5.2v8H1.9V61.7H5.2L5.2,61.7z"/>
	<path class="st0" d="M23.4,63.1c0,1-0.7,1.8-1.9,1.8c-1.1,0-1.8-0.8-1.8-1.8c0-1,0.7-1.8,1.9-1.8S23.4,62,23.4,63.1z M19.9,79.9
		V66.7h3.3v13.1L19.9,79.9L19.9,79.9z"/>
	<path class="st0" d="M30.6,63v3.7h3.2v2.5h-3.2V75c0,1.6,0.4,2.4,1.7,2.4c0.6,0,1-0.1,1.3-0.2l0.1,2.5c-0.5,0.2-1.4,0.3-2.4,0.3
		c-1.2,0-2.2-0.4-2.9-1.1c-0.7-0.8-1-2-1-3.7V69h-1.9v-2.3h1.9v-3L30.6,63L30.6,63z"/>
	<path class="st0" d="M48.8,73.2c0,4.8-3.4,7-6.8,7c-3.7,0-6.6-2.6-6.6-6.8s2.8-7,6.8-7S48.8,69.2,48.8,73.2L48.8,73.2z M38.8,73.3
		c0,2.5,1.3,4.4,3.3,4.4s3.2-1.8,3.2-4.5c0-2.1-0.9-4.4-3.2-4.4S38.8,71.1,38.8,73.3L38.8,73.3z"/>
	<path class="st0" d="M55.3,63v3.7h3.2v2.5h-3.2V75c0,1.6,0.4,2.4,1.7,2.4c0.6,0,1-0.1,1.3-0.2l0.1,2.5C57.9,79.9,57,80,56,80
		c-1.2,0-2.2-0.4-2.9-1.1c-0.7-0.8-1-2-1-3.7V69h-1.9v-2.3h1.9v-3L55.3,63L55.3,63z"/>
	<path class="st0" d="M60.8,76.8c0.7,0.4,2.2,1,3.3,1c1.5,0,2.1-0.6,2.1-1.5S65.7,75,64,74.4c-2.6-0.9-3.6-2.3-3.6-3.8
		c0-2.3,1.9-4.1,5-4.1c1.4,0,2.7,0.4,3.5,0.8l-0.7,2.3c-0.6-0.3-1.6-0.8-2.8-0.8s-1.8,0.6-1.8,1.4s0.6,1.2,2.3,1.8
		c2.4,0.8,3.5,2.1,3.5,4c0,2.4-1.9,4.1-5.3,4.1c-1.6,0-3-0.4-4-0.9L60.8,76.8L60.8,76.8z"/>
	<path class="st0" d="M84,75.9c0,1.6,0.1,2.9,0.1,3.9h-2.9l-0.2-2l0,0c-0.6,0.9-1.8,2.3-4.2,2.3s-4.6-1.4-4.6-5.7v-7.7h3.3v7.2
		c0,2.2,0.7,3.6,2.4,3.6c1.3,0,2.2-0.9,2.5-1.8c0.1-0.3,0.2-0.6,0.2-1v-8H84V75.9L84,75.9z"/>
	<path class="st0" d="M87.5,79.9c0.1-0.9,0.1-2.3,0.1-3.7V60.7h3.3v7.8H91c0.8-1.3,2.2-2.1,4.2-2.1c3.2,0,5.5,2.7,5.5,6.7
		c0,4.7-3,7.1-6,7.1c-1.7,0-3.2-0.7-4.1-2.3h-0.1l-0.2,2H87.5L87.5,79.9z M90.9,74.4c0,0.3,0,0.5,0.1,0.8c0.3,1.3,1.5,2.3,2.9,2.3
		c2.1,0,3.3-1.7,3.3-4.3c0-2.3-1.1-4.2-3.3-4.2c-1.3,0-2.6,1-2.9,2.4c-0.1,0.3-0.1,0.6-0.1,0.9V74.4L90.9,74.4z"/>
	<path class="st0" d="M110.8,79.9l-0.2-1.5h-0.1c-0.8,1-2.2,1.8-3.9,1.8c-2.7,0-4.1-1.9-4.1-3.9c0-3.3,3-5,7.8-5v-0.2
		c0-0.9-0.3-2.3-2.7-2.3c-1.3,0-2.6,0.4-3.5,1l-0.7-2.2c1-0.6,2.7-1.2,4.8-1.2c4.2,0,5.4,2.7,5.4,5.5v4.8c0,1.2,0.1,2.3,0.2,3.2
		H110.8L110.8,79.9z M110.3,73.4c-2.3,0-4.6,0.5-4.6,2.5c0,1.3,0.8,1.9,1.9,1.9c1.3,0,2.3-0.9,2.6-1.8c0.1-0.2,0.1-0.5,0.1-0.7V73.4
		L110.3,73.4z"/>
	<path class="st0" d="M116.9,76.8c0.7,0.4,2.2,1,3.3,1c1.5,0,2.1-0.6,2.1-1.5s-0.5-1.3-2.2-1.9c-2.6-0.9-3.6-2.3-3.6-3.8
		c0-2.3,1.9-4.1,5-4.1c1.4,0,2.7,0.4,3.5,0.8l-0.7,2.3c-0.6-0.3-1.6-0.8-2.8-0.8s-1.8,0.6-1.8,1.4s0.6,1.2,2.3,1.8
		c2.4,0.8,3.5,2.1,3.5,4c0,2.4-1.9,4.1-5.3,4.1c-1.6,0-3-0.4-4-0.9L116.9,76.8L116.9,76.8z"/>
	<path class="st0" d="M128.4,60.7h3.3v7.8h0.1c0.4-0.6,1-1.1,1.6-1.5s1.4-0.6,2.3-0.6c2.2,0,4.6,1.5,4.6,5.7v7.7H137v-7.4
		c0-1.9-0.7-3.3-2.5-3.3c-1.3,0-2.2,0.9-2.6,1.9c-0.1,0.3-0.1,0.6-0.1,1v7.9h-3.3L128.4,60.7L128.4,60.7z"/>
	<path class="st0" d="M147.3,63.1c0,1-0.7,1.8-1.9,1.8c-1.1,0-1.8-0.8-1.8-1.8c0-1,0.7-1.8,1.9-1.8S147.3,62,147.3,63.1z
		 M143.8,79.9V66.7h3.3v13.1L143.8,79.9L143.8,79.9z"/>
	<path class="st0" d="M159.8,61.7V69h7.7v-7.3h3.3v18.2h-3.3v-8h-7.7v8h-3.3V61.7H159.8z"/>
	<path class="st0" d="M181.9,79.9l-0.2-1.5h-0.1c-0.8,1-2.2,1.8-3.9,1.8c-2.7,0-4.1-1.9-4.1-3.9c0-3.3,3-5,7.8-5v-0.2
		c0-0.9-0.3-2.3-2.7-2.3c-1.3,0-2.6,0.4-3.5,1l-0.7-2.2c1-0.6,2.7-1.2,4.8-1.2c4.2,0,5.4,2.7,5.4,5.5v4.8c0,1.2,0.1,2.3,0.2,3.2
		H181.9L181.9,79.9z M181.4,73.4c-2.3,0-4.6,0.5-4.6,2.5c0,1.3,0.8,1.9,1.9,1.9c1.3,0,2.3-0.9,2.6-1.8c0.1-0.2,0.1-0.5,0.1-0.7V73.4
		L181.4,73.4z"/>
	<path class="st0" d="M188.2,60.7h3.3v19.2h-3.3V60.7z"/>
	<path class="st0" d="M195.1,60.7h3.3v19.2h-3.3V60.7z"/>
	<path class="st0" d="M0.5,97.9v-0.7l0.9-0.9c2.2-2.1,3.1-3.2,3.2-4.4c0-0.9-0.4-1.7-1.7-1.7c-0.8,0-1.4,0.4-1.8,0.7l-0.4-0.8
		c0.6-0.5,1.4-0.9,2.4-0.9c1.8,0,2.6,1.2,2.6,2.4c0,1.6-1.1,2.8-2.9,4.5l-0.7,0.6l0,0h3.8v0.9L0.5,97.9L0.5,97.9z"/>
	<path class="st0" d="M10.2,94v0.8H7V94H10.2z"/>
	<path class="st0" d="M13.7,90.5L13.7,90.5l-1.5,0.8L12,90.4l1.9-1h1v8.4h-1.1C13.7,97.9,13.7,90.5,13.7,90.5z"/>
	<path class="st0" d="M20.9,94v0.8h-3.2V94C17.7,94,20.9,94,20.9,94z"/>
	<path class="st0" d="M21.9,97.9v-0.7l0.9-0.9c2.2-2.1,3.1-3.2,3.1-4.4c0-0.9-0.4-1.7-1.7-1.7c-0.8,0-1.4,0.4-1.8,0.7L22,90.1
		c0.6-0.5,1.4-0.9,2.4-0.9c1.8,0,2.6,1.2,2.6,2.4c0,1.6-1.1,2.8-2.9,4.5l-0.7,0.6l0,0h3.8v0.9L21.9,97.9L21.9,97.9z"/>
	<path class="st0" d="M28.2,99.5c0.3-0.8,0.6-2.2,0.8-3.1l1.3-0.1c-0.3,1.1-0.9,2.6-1.2,3.2C29,99.4,28.2,99.5,28.2,99.5z"/>
	<path class="st0" d="M35.5,89.1v3.7h4.2v-3.7h1.1v8.8h-1.1v-4.1h-4.2v4.1h-1.1v-8.8H35.5z"/>
	<path class="st0" d="M44.1,89.8c0,0.4-0.3,0.7-0.7,0.7s-0.7-0.3-0.7-0.7s0.3-0.7,0.7-0.7S44.1,89.4,44.1,89.8z M42.8,97.9v-6.3H44
		v6.3H42.8z"/>
	<path class="st0" d="M47.2,89.8v1.8h1.6v0.9h-1.6v3.4c0,0.8,0.2,1.2,0.9,1.2c0.3,0,0.5,0,0.7-0.1v0.9c-0.2,0.1-0.6,0.2-1,0.2
		c-0.5,0-1-0.2-1.2-0.5c-0.3-0.3-0.4-0.9-0.4-1.6v-3.4h-1v-0.9h1v-1.5L47.2,89.8L47.2,89.8z"/>
	<path class="st0" d="M55.8,94.7c0,2.3-1.6,3.3-3.1,3.3c-1.7,0-3-1.2-3-3.2c0-2.1,1.4-3.3,3.1-3.3S55.8,92.8,55.8,94.7L55.8,94.7z
		 M50.9,94.8c0,1.4,0.8,2.4,1.9,2.4s1.9-1,1.9-2.4c0-1.1-0.5-2.4-1.9-2.4S50.9,93.6,50.9,94.8z"/>
	<path class="st0" d="M58.7,89.8v1.8h1.6v0.9h-1.6v3.4c0,0.8,0.2,1.2,0.9,1.2c0.3,0,0.5,0,0.7-0.1v0.9c-0.2,0.1-0.6,0.2-1,0.2
		c-0.5,0-1-0.2-1.2-0.5c-0.3-0.3-0.4-0.9-0.4-1.6v-3.4h-1v-0.9h1v-1.5L58.7,89.8L58.7,89.8z"/>
	<path class="st0" d="M61.4,96.7c0.3,0.2,1,0.4,1.5,0.4c0.8,0,1.2-0.4,1.2-0.9s-0.3-0.8-1.2-1.2c-1.1-0.4-1.7-1-1.7-1.8
		c0-1,0.8-1.8,2.2-1.8c0.6,0,1.2,0.2,1.5,0.4l-0.3,0.8c-0.2-0.2-0.7-0.4-1.3-0.4c-0.7,0-1,0.4-1,0.9s0.4,0.8,1.2,1.1
		c1.1,0.4,1.6,0.9,1.6,1.9c0,1.1-0.9,1.9-2.3,1.9c-0.7,0-1.3-0.2-1.8-0.4C61.2,97.6,61.4,96.7,61.4,96.7z"/>
	<path class="st0" d="M72,96.2c0,0.7,0,1.2,0.1,1.7h-1l-0.1-1l0,0c-0.3,0.5-0.9,1.2-2.1,1.2c-1,0-2.2-0.6-2.2-2.8v-3.7h1.1v3.5
		c0,1.2,0.4,2,1.4,2c0.8,0,1.3-0.5,1.5-1.1c0.1-0.2,0.1-0.4,0.1-0.6v-3.8H72V96.2L72,96.2z"/>
	<path class="st0" d="M73.9,97.9c0-0.4,0.1-1.1,0.1-1.6v-7.6h1.1v3.9l0,0c0.4-0.7,1.1-1.2,2.1-1.2c1.6,0,2.7,1.3,2.7,3.2
		c0,2.3-1.4,3.4-2.8,3.4c-0.9,0-1.6-0.4-2.1-1.2l0,0l-0.1,1L73.9,97.9L73.9,97.9z M75.1,95.4c0,0.1,0,0.3,0.1,0.4
		c0.2,0.8,0.9,1.3,1.7,1.3c1.2,0,1.9-1,1.9-2.4c0-1.3-0.7-2.3-1.9-2.3c-0.8,0-1.5,0.5-1.7,1.4c0,0.1-0.1,0.3-0.1,0.5V95.4L75.1,95.4
		z"/>
	<path class="st0" d="M84.8,97.9l-0.1-0.8l0,0c-0.3,0.5-1,0.9-1.9,0.9c-1.3,0-1.9-0.9-1.9-1.8c0-1.5,1.3-2.4,3.8-2.3v-0.1
		c0-0.5-0.1-1.5-1.4-1.4c-0.6,0-1.2,0.2-1.6,0.5l-0.3-0.8c0.5-0.3,1.3-0.6,2.1-0.6c1.9,0,2.4,1.3,2.4,2.6v2.3c0,0.5,0,1.1,0.1,1.5
		L84.8,97.9L84.8,97.9z M84.6,94.7c-1.2,0-2.7,0.2-2.7,1.4c0,0.8,0.5,1.1,1.1,1.1c0.8,0,1.3-0.5,1.5-1.1c0-0.1,0.1-0.2,0.1-0.4V94.7
		z"/>
	<path class="st0" d="M87.4,96.7c0.3,0.2,0.9,0.4,1.5,0.4c0.8,0,1.2-0.4,1.2-0.9s-0.3-0.8-1.2-1.2c-1.1-0.4-1.7-1-1.7-1.8
		c0-1,0.8-1.8,2.2-1.8c0.6,0,1.2,0.2,1.5,0.4l-0.3,0.8c-0.2-0.2-0.7-0.4-1.3-0.4c-0.7,0-1,0.4-1,0.9s0.4,0.8,1.2,1.1
		c1.1,0.4,1.7,0.9,1.7,1.9c0,1.1-0.9,1.9-2.3,1.9c-0.7,0-1.3-0.2-1.8-0.4C87.1,97.6,87.4,96.7,87.4,96.7z"/>
	<path class="st0" d="M92.7,88.7h1.1v3.9l0,0c0.2-0.3,0.5-0.6,0.8-0.8c0.3-0.2,0.7-0.3,1.2-0.3c0.8,0,2.2,0.5,2.2,2.7v3.7h-1.1v-3.6
		c0-1-0.4-1.9-1.4-1.9c-0.8,0-1.3,0.5-1.5,1.1c-0.1,0.2-0.1,0.3-0.1,0.5v3.8h-1.1L92.7,88.7L92.7,88.7z"/>
	<path class="st0" d="M101.2,89.8c0,0.4-0.3,0.7-0.7,0.7c-0.4,0-0.7-0.3-0.7-0.7s0.3-0.7,0.7-0.7S101.2,89.4,101.2,89.8z M99.9,97.9
		v-6.3h1.1v6.3H99.9z"/>
	<path class="st0" d="M102.2,99.5c0.3-0.8,0.6-2.2,0.8-3.1l1.3-0.1c-0.3,1.1-0.9,2.6-1.2,3.2C103,99.4,102.2,99.5,102.2,99.5z"/>
	<path class="st0" d="M114.6,97.6c-0.4,0.2-1.2,0.4-2.3,0.4c-2.5,0-4.3-1.6-4.3-4.4s1.8-4.6,4.6-4.6c1.1,0,1.8,0.2,2.1,0.4l-0.3,0.9
		c-0.4-0.2-1-0.4-1.8-0.4c-2.1,0-3.4,1.3-3.4,3.6c0,2.1,1.2,3.5,3.4,3.5c0.7,0,1.4-0.1,1.9-0.4C114.4,96.7,114.6,97.6,114.6,97.6z"
		/>
	<path class="st0" d="M116,88.7h1.1v3.9l0,0c0.2-0.3,0.5-0.6,0.8-0.8c0.3-0.2,0.7-0.3,1.2-0.3c0.8,0,2.2,0.5,2.2,2.7v3.7h-1.1v-3.6
		c0-1-0.4-1.9-1.4-1.9c-0.8,0-1.3,0.5-1.5,1.1c-0.1,0.2-0.1,0.3-0.1,0.5v3.8H116V88.7L116,88.7z"/>
	<path class="st0" d="M124.5,89.8c0,0.4-0.3,0.7-0.7,0.7c-0.4,0-0.7-0.3-0.7-0.7s0.3-0.7,0.7-0.7S124.4,89.4,124.5,89.8z
		 M123.2,97.9v-6.3h1.1v6.3H123.2z"/>
	<path class="st0" d="M126.6,91.6l1.4,3.7c0.1,0.4,0.3,0.9,0.4,1.3l0,0c0.1-0.4,0.2-0.8,0.4-1.3l1.2-3.7h1.2l-1.7,4.5
		c-0.8,2.2-1.4,3.3-2.2,3.9c-0.6,0.5-1.1,0.7-1.4,0.7l-0.3-1c0.3-0.1,0.7-0.3,1-0.6c0.3-0.2,0.7-0.7,1-1.3c0.1-0.1,0.1-0.2,0.1-0.3
		c0-0.1,0-0.2-0.1-0.3l-2.3-5.8L126.6,91.6L126.6,91.6z"/>
	<path class="st0" d="M138,94.7c0,2.3-1.6,3.3-3.1,3.3c-1.7,0-3-1.2-3-3.2c0-2.1,1.4-3.3,3.1-3.3S138,92.8,138,94.7L138,94.7z
		 M133,94.8c0,1.4,0.8,2.4,1.9,2.4s1.9-1,1.9-2.4c0-1.1-0.5-2.4-1.9-2.4S133,93.6,133,94.8L133,94.8z"/>
	<path class="st0" d="M144.9,88.7v7.6c0,0.6,0,1.2,0.1,1.6h-1l-0.1-1.1l0,0c-0.4,0.7-1.1,1.2-2.1,1.2c-1.5,0-2.7-1.3-2.7-3.2
		c0-2.1,1.3-3.4,2.8-3.4c1,0,1.6,0.4,1.9,0.9l0,0v-3.6H144.9L144.9,88.7z M143.8,94.2c0-0.2,0-0.3-0.1-0.5c-0.2-0.7-0.8-1.3-1.7-1.3
		c-1.2,0-1.9,1-1.9,2.4c0,1.3,0.6,2.3,1.9,2.3c0.8,0,1.5-0.5,1.7-1.4c0-0.2,0.1-0.3,0.1-0.5V94.2L143.8,94.2z"/>
	<path class="st0" d="M150.3,97.9l-0.1-0.8l0,0c-0.3,0.5-1,0.9-1.9,0.9c-1.3,0-1.9-0.9-1.9-1.8c0-1.5,1.4-2.4,3.8-2.3v-0.1
		c0-0.5-0.1-1.5-1.4-1.4c-0.6,0-1.2,0.2-1.6,0.5l-0.3-0.8c0.5-0.3,1.3-0.6,2.1-0.6c1.9,0,2.4,1.3,2.4,2.6v2.3c0,0.5,0,1.1,0.1,1.5
		L150.3,97.9L150.3,97.9z M150.1,94.7c-1.2,0-2.6,0.2-2.6,1.4c0,0.8,0.5,1.1,1.1,1.1c0.8,0,1.4-0.5,1.5-1.1c0-0.1,0.1-0.2,0.1-0.4
		L150.1,94.7L150.1,94.7z"/>
	<path class="st0" d="M155.7,94v0.8h-3.2V94H155.7z"/>
	<path class="st0" d="M158.2,94.5L158.2,94.5c0.2-0.2,0.4-0.5,0.6-0.7l1.9-2.2h1.4l-2.4,2.6l2.8,3.7H161l-2.2-3l-0.6,0.7V98h-1.1
		v-9.3h1.1V94.5L158.2,94.5z"/>
	<path class="st0" d="M168.4,96.2c0,0.7,0,1.2,0.1,1.7h-1l-0.1-1l0,0c-0.3,0.5-0.9,1.2-2.1,1.2c-1,0-2.2-0.6-2.2-2.8v-3.7h1.1v3.5
		c0,1.2,0.4,2,1.4,2c0.8,0,1.3-0.5,1.5-1.1c0.1-0.2,0.1-0.4,0.1-0.6v-3.8h1.1L168.4,96.2L168.4,96.2z"/>
	<path class="st0" d="M169.6,99.5c0.3-0.8,0.6-2.2,0.8-3.1l1.3-0.1c-0.3,1.1-0.9,2.6-1.2,3.2C170.4,99.4,169.6,99.5,169.6,99.5z"/>
	<path class="st0" d="M174.7,90.1H172v-1h6.5v1h-2.7v7.8h-1.1V90.1L174.7,90.1z"/>
	<path class="st0" d="M185.2,94.7c0,2.3-1.6,3.3-3.1,3.3c-1.7,0-3-1.2-3-3.2c0-2.1,1.4-3.3,3.1-3.3S185.2,92.8,185.2,94.7
		L185.2,94.7z M180.2,94.8c0,1.4,0.8,2.4,1.9,2.4s1.9-1,1.9-2.4c0-1.1-0.5-2.4-1.9-2.4S180.2,93.6,180.2,94.8L180.2,94.8z"/>
	<path class="st0" d="M187.8,94.5L187.8,94.5c0.2-0.2,0.4-0.5,0.6-0.7l1.9-2.2h1.4l-2.4,2.6l2.8,3.7h-1.4l-2.2-3l-0.6,0.7V98h-1.1
		v-9.3h1.1L187.8,94.5L187.8,94.5z"/>
	<path class="st0" d="M193.1,91.6l1.4,3.7c0.1,0.4,0.3,0.9,0.4,1.3l0,0c0.1-0.4,0.2-0.8,0.4-1.3l1.2-3.7h1.2l-1.7,4.5
		c-0.8,2.2-1.4,3.3-2.1,3.9c-0.6,0.5-1.1,0.7-1.4,0.7l-0.3-1c0.3-0.1,0.7-0.3,1-0.6c0.3-0.2,0.7-0.7,1-1.3c0.1-0.1,0.1-0.2,0.1-0.3
		c0-0.1,0-0.2-0.1-0.3l-2.3-5.8L193.1,91.6L193.1,91.6z"/>
	<path class="st0" d="M204.5,94.7c0,2.3-1.6,3.3-3.1,3.3c-1.7,0-3-1.2-3-3.2c0-2.1,1.4-3.3,3.1-3.3S204.5,92.8,204.5,94.7
		L204.5,94.7z M199.5,94.8c0,1.4,0.8,2.4,1.9,2.4s1.9-1,1.9-2.4c0-1.1-0.5-2.4-1.9-2.4S199.5,93.6,199.5,94.8L199.5,94.8z"/>
	<path class="st0" d="M210.9,90.5L210.9,90.5l-1.5,0.8l-0.2-0.9l1.9-1h1v8.4H211C210.9,97.9,210.9,90.5,210.9,90.5z"/>
	<path class="st0" d="M220.6,93.6c0,2.9-1.1,4.4-2.9,4.4c-1.6,0-2.8-1.6-2.8-4.3c0-2.8,1.2-4.4,2.9-4.4S220.6,90.9,220.6,93.6
		L220.6,93.6z M216.1,93.7c0,2.2,0.7,3.4,1.7,3.4c1.2,0,1.7-1.4,1.7-3.5s-0.5-3.4-1.7-3.4C216.8,90.2,216.1,91.4,216.1,93.7
		L216.1,93.7z"/>
	<path class="st0" d="M224.2,90.5L224.2,90.5l-1.5,0.8l-0.2-0.9l1.9-1h1v8.4h-1.1C224.2,97.9,224.2,90.5,224.2,90.5z"/>
	<path class="st0" d="M231.4,94v0.8h-3.2V94H231.4z"/>
	<path class="st0" d="M238,93.6c0,2.9-1.1,4.4-2.9,4.4c-1.6,0-2.8-1.6-2.8-4.3c0-2.8,1.2-4.4,2.9-4.4S238,90.9,238,93.6L238,93.6z
		 M233.4,93.7c0,2.2,0.7,3.4,1.7,3.4c1.2,0,1.7-1.4,1.7-3.5s-0.5-3.4-1.7-3.4C234.1,90.2,233.4,91.4,233.4,93.7L233.4,93.7z"/>
	<path class="st0" d="M244.6,93.6c0,2.9-1.1,4.4-2.9,4.4c-1.6,0-2.8-1.6-2.8-4.3c0-2.8,1.2-4.4,2.9-4.4S244.6,90.9,244.6,93.6
		L244.6,93.6z M240.1,93.7c0,2.2,0.7,3.4,1.7,3.4c1.2,0,1.7-1.4,1.7-3.5s-0.5-3.4-1.7-3.4C240.8,90.2,240.1,91.4,240.1,93.7
		L240.1,93.7z"/>
	<path class="st0" d="M251.3,93.6c0,2.9-1.1,4.4-2.9,4.4c-1.6,0-2.8-1.6-2.8-4.3c0-2.8,1.2-4.4,2.9-4.4S251.3,90.9,251.3,93.6
		L251.3,93.6z M246.7,93.7c0,2.2,0.7,3.4,1.7,3.4c1.2,0,1.7-1.4,1.7-3.5s-0.5-3.4-1.7-3.4C247.5,90.2,246.7,91.4,246.7,93.7
		L246.7,93.7z"/>
	<path class="st0" d="M252.6,96.6c0.3,0.2,1.1,0.5,1.9,0.5c1.5,0,1.9-0.9,1.9-1.6c0-1.2-1.1-1.7-2.2-1.7h-0.6v-0.9h0.6
		c0.8,0,1.9-0.4,1.9-1.4c0-0.7-0.4-1.3-1.5-1.3c-0.7,0-1.3,0.3-1.7,0.6l-0.3-0.8c0.4-0.3,1.3-0.7,2.2-0.7c1.7,0,2.4,1,2.4,2
		c0,0.9-0.5,1.6-1.6,2l0,0c1,0.2,1.9,1,1.9,2.2c0,1.3-1.1,2.5-3.1,2.5c-0.9,0-1.8-0.3-2.2-0.6L252.6,96.6L252.6,96.6z"/>
	<path class="st0" d="M258.7,99.5c0.3-0.8,0.6-2.2,0.8-3.1l1.3-0.1c-0.3,1.1-0.9,2.6-1.2,3.2C259.5,99.4,258.7,99.5,258.7,99.5z"/>
	<path class="st0" d="M266.7,89.1h1.1V95c0,2.3-1.1,3.1-2.6,3.1c-0.4,0-0.9-0.1-1.2-0.2l0.2-0.9c0.2,0.1,0.6,0.2,1,0.2
		c1,0,1.6-0.5,1.6-2.2L266.7,89.1L266.7,89.1z"/>
	<path class="st0" d="M273.1,97.9l-0.1-0.8l0,0c-0.3,0.5-1,0.9-1.9,0.9c-1.3,0-1.9-0.9-1.9-1.8c0-1.5,1.4-2.4,3.8-2.3v-0.1
		c0-0.5-0.1-1.5-1.4-1.4c-0.6,0-1.2,0.2-1.6,0.5l-0.3-0.8c0.5-0.3,1.3-0.6,2.1-0.6c1.9,0,2.4,1.3,2.4,2.6v2.3c0,0.5,0,1.1,0.1,1.5
		L273.1,97.9L273.1,97.9z M273,94.7c-1.2,0-2.6,0.2-2.6,1.4c0,0.8,0.5,1.1,1.1,1.1c0.8,0,1.4-0.5,1.5-1.1c0-0.1,0-0.2,0-0.4V94.7z"
		/>
	<path class="st0" d="M275.9,93.6c0-0.8,0-1.4,0-2.1h1l0.1,1.1l0,0c0.5-0.8,1.2-1.2,2.2-1.2c1.5,0,2.7,1.3,2.7,3.2
		c0,2.3-1.4,3.4-2.9,3.4c-0.8,0-1.6-0.4-1.9-1l0,0v3.4H276L275.9,93.6L275.9,93.6z M277.1,95.3c0,0.2,0,0.3,0,0.5
		c0.2,0.8,0.9,1.3,1.7,1.3c1.2,0,1.9-1,1.9-2.4c0-1.2-0.7-2.3-1.9-2.3c-0.8,0-1.5,0.6-1.7,1.4c0,0.2-0.1,0.3-0.1,0.5L277.1,95.3
		L277.1,95.3z"/>
	<path class="st0" d="M286.8,97.9l-0.1-0.8l0,0c-0.3,0.5-1,0.9-1.9,0.9c-1.3,0-1.9-0.9-1.9-1.8c0-1.5,1.4-2.4,3.8-2.3v-0.1
		c0-0.5-0.1-1.5-1.4-1.4c-0.6,0-1.2,0.2-1.6,0.5l-0.3-0.8c0.5-0.3,1.3-0.6,2.1-0.6c1.9,0,2.4,1.3,2.4,2.6v2.3c0,0.5,0,1.1,0.1,1.5
		L286.8,97.9L286.8,97.9z M286.6,94.7c-1.2,0-2.6,0.2-2.6,1.4c0,0.8,0.5,1.1,1.1,1.1c0.8,0,1.4-0.5,1.5-1.1c0-0.1,0-0.2,0-0.4V94.7z
		"/>
	<path class="st0" d="M289.6,93.3c0-0.7,0-1.2,0-1.7h1l0.1,1l0,0c0.3-0.6,1-1.2,2.1-1.2c0.9,0,2.2,0.5,2.2,2.7v3.8h-1.1v-3.6
		c0-1-0.4-1.9-1.5-1.9c-0.8,0-1.3,0.5-1.5,1.2c0,0.1-0.1,0.3-0.1,0.5v3.8h-1.1L289.6,93.3L289.6,93.3z"/>
</g>
</svg>
