<?xml version="1.0" encoding="utf-8"?>
<!-- Generator: Adobe Illustrator 26.3.1, SVG Export Plug-In . SVG Version: 6.00 Build 0)  -->
<svg version="1.1" id="image" xmlns="http://www.w3.org/2000/svg" xmlns:xlink="http://www.w3.org/1999/xlink" x="0px" y="0px"
	 viewBox="0 0 333 59" style="enable-background:new 0 0 333 59;" xml:space="preserve" width="333" height="59">
<style type="text/css">
	.st0{fill:#FFFFFF;}
</style>
<g>
	<path class="st0" d="M8.8,18.8H2.7v-1.1c-0.7,0.4-1.2,0.7-1.6,0.8C1,18.4,0.6,17.8,0,17.4c1.7-0.5,4.2-2.3,5-3.8l1.7,0.2
		c0.1,0,0.2,0.1,0.2,0.2c0,0.1-0.1,0.1-0.3,0.2c0.7,1,3.1,2.5,4.9,3.1c-0.5,0.3-1,1.2-1,1.3c-0.8-0.3-1.4-0.7-1.7-0.9V18.8L8.8,18.8
		z M0.8,23c0.4,0,1.7-0.1,1.9-0.1c0.6-1,0.9-1.8,1-2H0.8v-1.3h9.9v1.3H7.9c1.4,1.2,2.1,2.1,2.8,3c-0.6,0.4-0.9,0.8-1.2,1.1
		c-0.6-0.9-0.6-0.9-0.9-1.3c-0.7,0.1-2.4,0.3-3.2,0.4c-0.6,0.1-3.3,0.4-3.8,0.4c-0.1,0.2-0.1,0.3-0.3,0.3c-0.1,0-0.1-0.1-0.2-0.3
		L0.8,23L0.8,23z M8.5,17.5c-1.3-0.8-1.9-1.4-2.8-2.3c-0.9,0.9-1.5,1.5-2.6,2.3H8.5z M7.5,20.8H5.6v0.1c0,0.1-0.2,0.2-0.3,0.2
		c-0.2,0.4-0.7,1.3-0.9,1.6c1.5-0.1,1.7-0.1,3.2-0.3c-0.2-0.2-0.5-0.5-1-0.9L7.5,20.8L7.5,20.8z"/>
	<path class="st0" d="M14.8,22.4c-0.2,0.4-1,1.6-1.5,2.2c-0.4-0.3-1.1-0.6-1.2-0.7c0.8-0.8,1.4-1.8,1.7-2.4L15,22
		c0.1,0,0.1,0.1,0.1,0.2C15.1,22.4,14.9,22.5,14.8,22.4L14.8,22.4z M12.2,21.4v-1.1h0.9v-4h-0.8V15h0.8v-1.2l1.5,0.1
		c0.1,0,0.2,0.1,0.2,0.2c0,0.1-0.1,0.1-0.3,0.2V15h1.4v-1.2l1.5,0.1c0.1,0,0.2,0.1,0.2,0.2c0,0.1-0.1,0.2-0.3,0.2V15H18v1.2h-0.7v4
		h0.8v1.1L12.2,21.4L12.2,21.4z M15.9,16.2h-1.4v0.7h1.4V16.2z M15.9,17.8h-1.4v0.7h1.4V17.8z M15.9,19.5h-1.4v0.7h1.4V19.5z
		 M20.8,24.7c0-0.4-0.2-1-0.6-1.4c0.3,0,0.7,0.1,0.8,0.1c0.2,0,0.4,0,0.4-0.4v-2.3h-1.5c-0.2,2.1-1.1,3.3-1.8,4.1
		c-0.5-0.5-0.6-0.5-1.3-0.8c0.2-0.2,0.4-0.5,0.7-0.8c-0.5,0.2-0.7,0.4-1.2,0.7c-0.4-0.6-0.7-1.1-1-1.8l1.1-0.6
		c0.2,0.3,0.5,1,1.1,1.7c0.5-0.8,1-2,1-4.1v-4.9h4.3v9.2C22.9,24.4,22.1,24.7,20.8,24.7L20.8,24.7z M21.4,18.1H20V19
		c0,0.1,0,0.4,0,0.5h1.4V18.1L21.4,18.1z M21.4,15.5H20v1.3h1.4V15.5z"/>
	<path class="st0" d="M31.8,15.8v1.9H30v-1.9C30,15.8,31.8,15.8,31.8,15.8z M31.8,20.8v1.9H30v-1.9H31.8z"/>
	<path class="st0" d="M47.8,4.4L47.8,4.4l-4.3,2.2l-0.8-3.3l5.7-2.8h3.7v23.4h-4.3L47.8,4.4L47.8,4.4z"/>
	<path class="st0" d="M76.7,11.9c0,7.5-2.9,12.2-8.6,12.2s-8.2-4.9-8.3-12C59.9,4.9,63,0,68.4,0S76.7,5,76.7,11.9L76.7,11.9z
		 M64.3,12.2c0,5.7,1.6,8.7,4,8.7c2.6,0,4-3.2,4-8.8s-1.3-8.6-4-8.6C66,3.4,64.3,6.3,64.3,12.2z"/>
	<path class="st0" d="M84.6,18.6c-0.7,4-3.1,6-4,6.8c-0.4-0.6-1.3-1.4-2.1-1.8c3.7-2.7,3.7-6.2,3.7-8.6V7.6h12.1v14.7
		c0,1.8-0.1,3-4.3,2.9c-0.1-0.8-0.5-2.1-0.8-2.7c0.5,0.1,1.2,0.2,1.7,0.2c0.7,0,0.9-0.3,0.9-1.2v-2.7C91.8,18.6,84.6,18.6,84.6,18.6
		z M91.8,16.2v-2h-7v0.9c0,0.2,0,0.4,0,1.1H91.8z M91.8,11.9v-2h-7v2H91.8z"/>
	<path class="st0" d="M109.2,23.8v-6H98.6V15l9.5-14.6h5.2v14.1h3v3.4h-3v6h-4.1V23.8z M109.2,14.5V8.1c0-1.3,0.1-2.7,0.1-4.1h-0.1
		c-0.7,1.5-1.3,2.7-2.1,3.9l-4.3,6.4v0.1L109.2,14.5L109.2,14.5z"/>
	<path class="st0" d="M122.1,23.4v1.2h-2.6V8.2h14v16.3h-2.6v-1.2h-8.8C122.1,23.3,122.1,23.4,122.1,23.4z M130.9,14.5v-3.9h-8.8
		v3.9C122.1,14.5,130.9,14.5,130.9,14.5z M130.9,21v-4.2h-8.8V21H130.9z"/>
	<path class="st0" d="M143.3,11.9c-0.7,0.8-2.6,2.7-2.6,6.2s1.8,5.4,2.6,6.2l-1.1,1c-2.5-2.5-2.9-5.3-2.9-7.2s0.5-4.7,2.9-7.2
		L143.3,11.9L143.3,11.9z"/>
	<path class="st0" d="M149.4,14.4l0.8,0.9c-0.4,5.1-3.4,7.6-4.3,8.3c-0.6-0.5-0.9-0.7-1.6-1.1c1.7-1.3,3.7-3.5,3.9-6.4H145v-1.7
		L149.4,14.4L149.4,14.4z M157.9,13.8c0.1,0,0.3,0.1,0.3,0.2s-0.1,0.2-0.5,0.2c-1.9,2.3-3.3,3.4-3.5,3.6c1.5,2.2,3.2,3.4,4.4,4.2
		c-0.7,0.7-0.8,0.8-1.3,1.5c-0.8-0.5-3.2-2.3-4.7-5v4.3c0,2.1-1.2,2.1-3.2,2.2c-0.2-1.2-0.4-1.6-0.6-1.9c0.1,0,0.9,0.1,1.1,0.1
		c0.8,0,0.9-0.1,0.9-0.8V11.1l1.8,0.1c0.1,0,0.4,0,0.4,0.2c0,0.1-0.1,0.2-0.4,0.3v2.8c0.3,0.9,0.5,1.4,0.6,1.7
		c1.1-0.9,2.3-2.4,2.8-3.4L157.9,13.8L157.9,13.8z"/>
	<path class="st0" d="M159.9,24.3c0.7-0.8,2.6-2.7,2.6-6.2s-1.8-5.4-2.6-6.2l1.1-1c2.5,2.5,3,5.3,3,7.2s-0.5,4.7-3,7.2L159.9,24.3
		L159.9,24.3z"/>
	<path class="st0" d="M179.6,18c-0.3,0.5-1.4,2.2-3.4,2.2c-0.8,0-1.6-0.2-2.7-1.2c-0.9-0.9-1.3-1.2-2.1-1.2c-1.2,0-2,1.2-2.4,1.9
		l-0.9-1.4c0.4-0.6,1.4-2.2,3.3-2.2c0.4,0,1.3,0,2.8,1.4c0.9,0.8,1.3,1.1,1.9,1.1c1.4,0,2.1-1.2,2.6-1.9L179.6,18L179.6,18z"/>
	<path class="st0" d="M196,3.5c-0.6,0-1.4,0-2.2,0.1c-4.9,0.6-7.3,3.6-7.9,6.8h0.1c1.1-1.3,2.9-2.2,5.3-2.2c4,0,7.2,2.9,7.2,7.6
		c0,4.5-3.3,8.4-8.2,8.4c-5.7,0-8.8-4.3-8.8-10.1c0-4.5,1.6-8.2,4.1-10.5c2.1-2,5-3.2,8.3-3.5c1-0.1,1.7-0.1,2.2-0.1L196,3.5
		L196,3.5z M193.9,16.1c0-2.7-1.5-4.6-4.1-4.6c-1.7,0-3.1,1-3.8,2.4c-0.2,0.3-0.3,0.8-0.3,1.4c0.1,3.1,1.5,5.6,4.4,5.6
		C192.4,20.9,193.9,18.9,193.9,16.1L193.9,16.1z"/>
	<path class="st0" d="M204.4,23.4v1.2h-2.6V8.2h14v16.3h-2.6v-1.2h-8.8L204.4,23.4L204.4,23.4z M213.1,14.5v-3.9h-8.8v3.9
		C204.4,14.5,213.1,14.5,213.1,14.5z M213.1,21v-4.2h-8.8V21H213.1z"/>
	<path class="st0" d="M225.6,11.9c-0.7,0.8-2.6,2.7-2.6,6.2s1.8,5.4,2.6,6.2l-1.1,1c-2.5-2.5-2.9-5.3-2.9-7.2s0.5-4.7,2.9-7.2
		L225.6,11.9L225.6,11.9z"/>
	<path class="st0" d="M234.8,18.2h4.7v1.7h-4.7V23h1.9c-0.6-0.4-0.9-0.5-1.2-0.6c0.7-1,1.1-1.8,1.3-2.4l1.7,0.7
		c0.1,0.1,0.2,0.1,0.2,0.2s-0.1,0.2-0.4,0.2c-0.3,0.8-0.8,1.6-1,1.8h2.8v1.6h-12.6v-1.6h2.9c-0.1-0.3-0.5-1.1-1.2-2.1l1.5-0.9
		c0.5,0.6,1.1,1.6,1.4,2.3c-0.7,0.4-0.8,0.4-1.2,0.7h2v-3.1h-4.8v-1.7h4.8V17h-2.3v-1c-0.4,0.3-1.2,0.8-2.6,1.5
		c-0.2-0.3-0.8-1-1.5-1.5c4.1-1.8,6-4.1,6.6-5l2,0.2c0.1,0,0.2,0.1,0.2,0.1c0,0.2-0.3,0.2-0.4,0.3c2.6,2.8,5.3,3.8,6.2,4.2
		c-0.3,0.2-1.1,1-1.4,1.6c-1-0.4-1.9-0.9-2.8-1.5V17h-2.2L234.8,18.2L234.8,18.2z M236.2,15.4c-1.1-0.8-1.7-1.4-2.4-2.2
		c-0.7,0.9-1.7,1.7-2.5,2.2H236.2z"/>
	<path class="st0" d="M242.2,24.3c0.7-0.8,2.6-2.7,2.6-6.2s-1.8-5.4-2.6-6.2l1.1-1c2.5,2.5,3,5.3,3,7.2s-0.5,4.7-3,7.2L242.2,24.3
		L242.2,24.3z"/>
</g>
<g>
	<path class="st0" d="M8.8,52H2.7v-1c-0.7,0.4-1.2,0.7-1.6,0.8C1,51.7,0.6,51.1,0,50.6c1.7-0.5,4.2-2.3,5-3.8L6.7,47
		c0.1,0,0.2,0.1,0.2,0.2c0,0.1-0.1,0.1-0.3,0.2c0.7,1,3.1,2.5,4.9,3.1c-0.5,0.3-1,1.2-1,1.3c-0.8-0.3-1.4-0.7-1.7-0.9V52L8.8,52z
		 M0.8,56.2c0.4,0,1.7-0.1,1.9-0.1c0.6-1,0.9-1.8,1-2H0.8v-1.3h9.9V54H7.9c1.4,1.2,2.1,2.1,2.8,3c-0.6,0.4-0.9,0.8-1.2,1
		c-0.6-0.8-0.6-0.9-0.9-1.3c-0.7,0.1-2.4,0.3-3.2,0.4c-0.6,0.1-3.3,0.3-3.8,0.4c-0.1,0.2-0.1,0.3-0.3,0.3c-0.1,0-0.1-0.1-0.2-0.3
		L0.8,56.2L0.8,56.2z M8.5,50.7c-1.3-0.8-1.9-1.4-2.8-2.3c-0.9,1-1.5,1.5-2.6,2.3H8.5z M7.5,54.1H5.6v0.1c0,0.1-0.2,0.2-0.3,0.2
		c-0.2,0.4-0.7,1.3-0.9,1.6c1.5-0.1,1.7-0.1,3.2-0.3c-0.2-0.2-0.5-0.5-1-0.9L7.5,54.1L7.5,54.1z"/>
	<path class="st0" d="M17.5,54.4c-0.2,0.2-0.8,0.9-1.6,1.6c-0.4-0.4-0.6-0.6-1-0.7c0.5-0.4,0.8-0.6,1-0.8c-1.5,0.7-2.9,1.1-3.1,1.2
		c0,0.2,0,0.3-0.2,0.3c-0.1,0-0.1-0.2-0.2-0.3L12,54.3c0.4,0,0.5-0.1,1.5-0.3v-3h-1.3v-1.3h1.3V47l1.5,0.1c0.1,0,0.3,0,0.3,0.1
		s-0.1,0.1-0.3,0.2v2.1h1.2v1.3H15v2.5c0.6-0.2,0.8-0.3,1.3-0.5c-0.1,0.4-0.1,1-0.1,1.2c0.3-0.3,0.6-0.7,0.9-1.2H16v-1h7.2v1h-4.7
		c-0.1,0.2-0.1,0.2-0.2,0.4H23c0,0.7,0,3.1-0.6,4c-0.3,0.5-1.1,0.6-1.6,0.6c-0.2,0-0.3,0-0.4,0c0-0.4-0.2-0.8-0.4-1.3
		c-0.4,0.6-0.9,1-1.5,1.5c-0.2-0.3-0.4-0.4-1.1-0.7c0.9-0.6,2-1.7,2.6-3h-0.5c-0.4,0.7-1,1.3-1.4,1.7c-0.7,0.8-1.2,1.1-2.1,1.6
		c-0.3-0.4-0.4-0.5-0.9-0.8c1-0.5,2-1.2,2.9-2.5L17.5,54.4L17.5,54.4z M22.2,51.4h-5.4v-4.2h5.4V51.4z M20.9,48.9v-0.5h-2.7v0.5
		H20.9z M18.2,49.8v0.6h2.7v-0.6H18.2z M21.2,54.4c-0.1,0.3-0.5,1.1-1.2,2.1c0.1,0,0.6,0.1,0.8,0.1c0.3,0,0.5-0.1,0.6-0.5
		c0-0.2,0.3-0.9,0.3-1.7L21.2,54.4L21.2,54.4z"/>
	<path class="st0" d="M31.8,49v1.9H30V49H31.8z M31.8,54v1.9H30V54H31.8z"/>
	<g>
		<path class="st0" d="M61.3,46.7v3.1H40.5v-3.1H61.3z"/>
		<path class="st0" d="M68.8,58.8h-2.5v-8.1c-0.6,1.6-1.1,2.3-1.5,2.9c-0.5-0.8-1.3-1.4-2.1-1.8c1-1,2.8-3.7,3.5-7.6h-2.8v-2.3h2.9
			v-4.3l2.4,0.2c0.2,0,0.5,0.1,0.5,0.2c0,0.1-0.1,0.2-0.1,0.3c-0.1,0.1-0.2,0.1-0.3,0.2v3.4h2v2.3h-2v0.3c0.8,2.5,1.7,3.6,2.8,4.9
			c-0.2,0.2-0.5,0.5-0.8,1c-0.4,0.8-0.5,0.9-0.6,1c-0.8-0.9-1.2-1.8-1.5-2.2L68.8,58.8L68.8,58.8z M82,49.5h-8.3v-2.7
			c-0.8,0.7-1.3,1-1.8,1.2c-0.6-0.8-1.1-1.2-1.9-1.7c2.3-1,3.6-2.7,3.7-2.8h-2.3v-2.1H75c0.2-0.4,0.3-0.6,0.4-0.9
			c-2.2,0.1-2.5,0.1-3.3,0.1c-0.5-1.4-0.5-1.5-1.1-2.2c0.5,0,0.9,0.1,2.1,0.1c4.7,0,8.3-1,8.6-1.1l1.4,1.6c0.1,0.1,0.1,0.2,0.1,0.3
			s0,0.2-0.2,0.2c-0.1,0-0.3,0-0.5,0c-0.1,0-0.1,0-0.2,0c-1.7,0.3-1.9,0.4-4,0.7c-0.2,0.4-0.3,0.8-0.5,1.2h6.6v2.1h-3.1
			c0.9,0.9,2.5,2.2,3.8,2.5c-0.6,0.7-1.1,1.3-1.3,2c-0.9-0.4-1.4-0.7-1.9-1.1L82,49.5L82,49.5z M76.9,56.6v0.7h-2V53h5.7v3.7h-0.1
			c0.1,0.1,0.5,0.1,0.7,0.1c0.5,0,0.5-0.4,0.5-1.1v-3.5h-8v6.7h-2.4v-8.5h12.9V56c0,2.7-1.3,2.8-3.5,2.9c-0.2-0.8-0.3-1.4-0.9-2.2
			L76.9,56.6L76.9,56.6z M79.2,44.6c-0.4-0.5-0.5-0.7-0.9-1.1h-1.8c-0.2,0.4-0.5,0.8-0.8,1.1H79.2L79.2,44.6z M75.9,46.5v1.2h3.7
			v-1.2H75.9z M76.9,54.3v0.9h1.8v-0.9H76.9z"/>
		<path class="st0" d="M94.2,41.5v2.2h-7.7v-2.2H94.2z M89.6,57.6v1.2h-2.5v-8.1H94v7.8h-2.4v-0.9C91.7,57.6,89.6,57.6,89.6,57.6z
			 M93.5,38.5v2h-5.8v-2H93.5z M93.5,44.6v2h-5.8v-2H93.5z M93.5,47.6v2h-5.8v-2H93.5z M91.7,55.5V53h-2.1v2.5H91.7z M107.5,52.9v2
			h-1.1v1.3c0,2.5-1.8,2.5-3.8,2.5c-0.1-1.2-0.8-2.3-1-2.6c0.2,0,1.1,0.2,1.7,0.2c0.3,0,0.7,0,0.7-0.7V55h-5.9v3.8h-2.4V55h-1.1v-2
			h1.1v-5.4h4.2v-0.9h-5.5v-1.9h3.3v-1.1h-2.4v-1.5h2.1v-1h-2.9v-1.8h2.9V38l2.5,0.1c0.2,0,0.5,0,0.5,0.2s-0.2,0.3-0.5,0.4v0.7h2.1
			v-1.5l2.6,0.1c0.1,0,0.5,0,0.5,0.2s-0.3,0.4-0.6,0.4v0.7h2.4v1.8h-2.4v1h1.8v1.5h-1.8v1.1h2.9v1.9h-5.5v0.9h4.3v5.4L107.5,52.9
			L107.5,52.9z M99.7,50.3v-1h-1.8v1H99.7z M99.7,52.9v-1.1h-1.8v1.1H99.7z M99.9,41v1h2.1v-1H99.9z M99.9,43.6v1.1h2.1v-1.1H99.9z
			 M103.9,50.3v-1H102v1H103.9z M103.9,52.9v-1.1H102v1.1H103.9z"/>
		<path class="st0" d="M121.4,52h7v2.3h-7v1.5h9v2.4h-20.9v-2.4h9v-1.5h-7V52h7v-1.4H114v-6.1h12v6.1h-4c0,0.2-0.2,0.3-0.6,0.5V52z
			 M118.5,41.3v-3.8l2.9,0.1c0.2,0,0.6,0,0.6,0.3c0,0.2-0.3,0.4-0.5,0.5v2.9h2.8c-0.4-0.2-0.7-0.4-1.4-0.6c1.4-1.8,1.7-2.6,1.8-3.1
			l2.6,1.1c0.2,0.1,0.4,0.2,0.4,0.4c0,0.3-0.5,0.3-0.7,0.3c-0.3,0.6-0.6,1-1.2,1.9h4.1v5.2h-2.8v-2.9h-14.2v2.9H110v-5.2h4.2
			c-0.8-1.2-1.3-1.8-1.8-2.2l2.4-1.5c0.6,0.5,1.7,1.8,2.2,2.8c-0.8,0.5-1,0.6-1.3,0.8L118.5,41.3L118.5,41.3z M116.8,46.7v1.6h6.4
			v-1.6H116.8z"/>
	</g>
</g>
</svg>
