<?xml version="1.0" encoding="utf-8"?>
<!-- Generator: Adobe Illustrator 26.3.1, SVG Export Plug-In . SVG Version: 6.00 Build 0)  -->
<svg version="1.1" id="_x32_" xmlns="http://www.w3.org/2000/svg" xmlns:xlink="http://www.w3.org/1999/xlink" x="0px" y="0px"
	 viewBox="0 0 16 16" style="enable-background:new 0 0 16 16;" xml:space="preserve" width="16" height="16">
<style type="text/css">
	.st0{fill:#00428E;}
</style>
<g>
	<path class="st0" d="M8,0C3.6,0,0,3.6,0,8s3.6,8,8,8s8-3.6,8-8S12.4,0,8,0z M3.1,3.1c0.7-0.7,1.6-1.3,2.6-1.6
		C5.2,2,4.8,2.7,4.5,3.6H2.6C2.7,3.4,2.9,3.2,3.1,3.1z M2.1,4.3h2.2C4,5.3,3.8,6.4,3.8,7.6H1C1.1,6.4,1.4,5.3,2.1,4.3z M2.1,11.7
		c-0.6-1-1-2.1-1-3.3h2.7c0,1.2,0.2,2.3,0.5,3.3H2.1L2.1,11.7z M3.1,12.9c-0.2-0.2-0.3-0.3-0.5-0.5h1.9c0.1,0.4,0.3,0.7,0.4,1
		c0.2,0.4,0.5,0.8,0.7,1.1C4.7,14.2,3.8,13.7,3.1,12.9z M7.6,15c-0.1,0-0.2,0-0.3,0c-0.2-0.1-0.4-0.2-0.5-0.3
		c-0.6-0.4-1.1-1.2-1.4-2.2h2.3L7.6,15L7.6,15z M7.6,11.7H5c-0.3-1-0.5-2.1-0.5-3.3h3.1V11.7L7.6,11.7z M7.6,7.6H4.5
		c0-1.2,0.2-2.3,0.5-3.3h2.6V7.6L7.6,7.6z M7.6,3.6H5.3c0.1-0.2,0.2-0.5,0.3-0.7c0.3-0.6,0.7-1.2,1.1-1.5C6.9,1.2,7.1,1.1,7.3,1
		c0.1,0,0.2,0,0.3,0L7.6,3.6L7.6,3.6z M14,4.3c0.6,1,1,2.1,1,3.3h-2.7c0-1.2-0.2-2.3-0.5-3.3H14L14,4.3z M13,3.1
		c0.2,0.2,0.3,0.3,0.5,0.5h-1.9c-0.1-0.4-0.3-0.7-0.4-1c-0.2-0.4-0.5-0.8-0.7-1.1C11.3,1.8,12.2,2.3,13,3.1z M8.4,1
		c0.1,0,0.2,0,0.3,0c0.2,0.1,0.4,0.2,0.5,0.3c0.6,0.4,1.1,1.2,1.4,2.2H8.4V1z M8.4,4.3H11c0.3,1,0.5,2.1,0.5,3.3H8.4V4.3z M8.4,8.4
		h3.1c0,1.2-0.2,2.3-0.5,3.3H8.4V8.4z M9.3,14.6c-0.2,0.1-0.4,0.3-0.5,0.3s-0.2,0-0.3,0v-2.6h2.3c-0.1,0.2-0.2,0.5-0.3,0.7
		C10.1,13.8,9.7,14.3,9.3,14.6z M13,12.9c-0.7,0.7-1.6,1.3-2.6,1.6c0.5-0.6,0.9-1.3,1.2-2.2h1.9C13.3,12.6,13.1,12.8,13,12.9z
		 M14,11.7h-2.2c0.3-1,0.5-2.1,0.5-3.3H15C14.9,9.6,14.6,10.7,14,11.7z"/>
</g>
</svg>
