<?xml version="1.0" encoding="UTF-8"?><svg id="_レイヤー_1" xmlns="http://www.w3.org/2000/svg" viewBox="0 0 494.22 590.7"><defs><style>.cls-1{letter-spacing:.00099em;}.cls-2,.cls-3{fill:#fff;}.cls-4{letter-spacing:.00006em;}.cls-5{fill:#94ffd4;}.cls-6{letter-spacing:-.11202em;}.cls-7{letter-spacing:-.00203em;}.cls-8{fill:#00b050;}.cls-9{fill:#ffe69a;}.cls-10{letter-spacing:.00092em;}.cls-11{fill:#fce4d6;}.cls-12{fill:#d9e1f2;}.cls-13{letter-spacing:-.023em;}.cls-14{fill:#00fa00;}.cls-15{fill:#ffc000;}.cls-3{font-family:Meiryo-Bold, Meiryo;font-size:9.24px;font-weight:700;}.cls-16{fill:#fff2cc;}.cls-17{font-family:Meiryo, Meiryo;font-size:7.92px;}.cls-18{fill:#e2efda;}.cls-19{fill:#ff8ad8;}.cls-20{fill:#ff0;}</style></defs><rect x=".66" y=".65997" width="493.26001" height="19.56"/><polyline class="cls-18" points="164.82 46.67999 493.92001 46.67999 493.92001 60 164.82 60"/><rect class="cls-5" x=".66" y="59.94" width="164.22" height="13.32001"/><polyline class="cls-18" points="164.82 59.94 493.92001 59.94 493.92001 73.26001 164.82 73.26001"/><rect class="cls-18" x=".66" y="73.20001" width="493.26001" height="53.09998"/><rect class="cls-18" x=".66" y="126.24005" width="164.22" height="53.09998"/><rect class="cls-15" x="164.82" y="126.24005" width="164.57999" height="53.09998"/><polyline class="cls-18" points="329.33999 126.23999 493.91995 126.23999 493.91995 179.34003 329.33999 179.34003"/><rect class="cls-18" x=".66" y="179.27997" width="164.22" height="13.32001"/><polyline class="cls-11" points="164.82 179.28003 493.92001 179.28003 493.92001 192.60004 164.82 192.60004"/><rect class="cls-11" x=".66" y="192.53998" width="493.26001" height="39.84003"/><rect class="cls-19" x=".66" y="232.32001" width="164.22" height="53.10001"/><rect class="cls-12" x="164.82" y="232.32001" width="164.57999" height="53.10001"/><polyline class="cls-8" points="329.33999 232.32001 493.91995 232.32001 493.91995 285.42001 329.33999 285.42001"/><rect class="cls-14" x=".66" y="285.35999" width="164.22" height="53.10001"/><rect class="cls-12" x="164.82" y="285.35999" width="164.57999" height="53.10001"/><polyline class="cls-8" points="329.33999 285.35999 493.91995 285.35999 493.91995 338.45999 329.33999 338.45999"/><rect class="cls-16" x=".66" y="338.40002" width="164.22" height="26.57999"/><rect class="cls-12" x="164.82" y="338.40002" width="164.57999" height="26.57999"/><polyline class="cls-16" points="329.33999 338.39999 493.91995 338.39999 493.91995 364.98001 329.33999 364.98001"/><rect class="cls-16" x=".66" y="364.91998" width="164.22" height="13.32001"/><rect class="cls-18" x="164.82" y="364.91998" width="164.57999" height="13.32001"/><polyline class="cls-16" points="329.33999 364.92001 493.91995 364.92001 493.91995 378.24002 329.33999 378.24002"/><rect class="cls-16" x=".66" y="378.17999" width="164.22" height="13.32001"/><polyline class="cls-18" points="164.82 378.17999 493.92001 378.17999 493.92001 391.5 164.82 391.5"/><rect class="cls-12" x=".66" y="391.44" width="164.22" height="66.35999"/><polyline class="cls-18" points="164.82 391.44 493.92001 391.44 493.92001 457.80002 164.82 457.80002"/><rect class="cls-12" x=".66" y="457.73999" width="164.22" height="13.32001"/><rect class="cls-20" x="164.82" y="457.73999" width="164.57999" height="13.32001"/><polyline class="cls-5" points="329.33999 457.73999 493.91995 457.73999 493.91995 471.06 329.33999 471.06"/><rect class="cls-18" x=".66" y="471" width="164.22" height="26.57999"/><rect class="cls-20" x="164.82" y="471" width="164.57999" height="26.57999"/><rect class="cls-18" x=".66" y="497.51999" width="164.22" height="53.10001"/><rect class="cls-9" x="164.82" y="497.51999" width="164.57999" height="53.10001"/><rect class="cls-9" x="164.82" y="550.56" width="164.57999" height="13.32001"/><rect class="cls-9" x="164.82" y="563.82001" width="164.57999" height="13.31999"/><text class="cls-3" transform="translate(427.63363 12.83984)"><tspan x="0" y="0">3</tspan></text><text class="cls-3" transform="translate(421.37777 12.83984)"><tspan x="0" y="0">2</tspan></text><text class="cls-3" transform="translate(417.05355 12.83984)"><tspan x="0" y="0">-</tspan></text><text class="cls-3" transform="translate(413.11703 12.83984)"><tspan x="0" y="0">t</tspan></text><text class="cls-3" transform="translate(408.06332 12.83984)"><tspan x="0" y="0">c</tspan></text><text class="cls-3" transform="translate(400.66195 12.83984)"><tspan x="0" y="0">O</tspan></text><text class="cls-3" transform="translate(396.33773 12.83984)"><tspan x="0" y="0">-</tspan></text><text class="cls-3" transform="translate(390.08187 12.83984)"><tspan x="0" y="0">6</tspan></text><text class="cls-3" transform="translate(263.10238 12.83984)"><tspan x="0" y="0">3</tspan></text><text class="cls-3" transform="translate(256.84652 12.83984)"><tspan x="0" y="0">2</tspan></text><text class="cls-3" transform="translate(252.5223 12.83984)"><tspan x="0" y="0">-</tspan></text><text class="cls-3" transform="translate(248.58676 12.83984)"><tspan x="0" y="0">t</tspan></text><text class="cls-3" transform="translate(243.53207 12.83984)"><tspan x="0" y="0">c</tspan></text><text class="cls-3" transform="translate(236.1307 12.83984)"><tspan x="0" y="0">O</tspan></text><text class="cls-3" transform="translate(231.80648 12.83984)"><tspan x="0" y="0">-</tspan></text><text class="cls-3" transform="translate(225.55111 12.83984)"><tspan x="0" y="0">5</tspan></text><text class="cls-3" transform="translate(98.57113 12.83984)"><tspan x="0" y="0">3</tspan></text><text class="cls-3" transform="translate(92.31576 12.83984)"><tspan x="0" y="0">2</tspan></text><text class="cls-3" transform="translate(87.99154 12.83984)"><tspan x="0" y="0">-</tspan></text><text class="cls-3" transform="translate(84.05551 12.83984)"><tspan x="0" y="0">t</tspan></text><text class="cls-3" transform="translate(79.00082 12.83984)"><tspan x="0" y="0">c</tspan></text><text class="cls-3" transform="translate(71.59994 12.83984)"><tspan x="0" y="0">O</tspan></text><text class="cls-3" transform="translate(67.27572 12.83984)"><tspan x="0" y="0">-</tspan></text><text class="cls-3" transform="translate(61.01986 12.83984)"><tspan x="0" y="0">4</tspan></text><text class="cls-17" transform="translate(430.13461 29.03955)"><tspan x="0" y="0">n</tspan></text><text class="cls-17" transform="translate(425.43051 29.03955)"><tspan x="0" y="0">o</tspan></text><text class="cls-17" transform="translate(423.41879 29.03955)"><tspan x="0" y="0">i</tspan></text><text class="cls-17" transform="translate(420.41684 29.03955)"><tspan x="0" y="0">t</tspan></text><text class="cls-17" transform="translate(415.82406 29.03955)"><tspan x="0" y="0">a</tspan></text><text class="cls-17" transform="translate(412.55258 29.03955)"><tspan x="0" y="0">r</tspan></text><text class="cls-17" transform="translate(409.55062 29.03955)"><tspan x="0" y="0">t</tspan></text><text class="cls-17" transform="translate(405.60727 29.03955)"><tspan x="0" y="0">s</tspan></text><text class="cls-17" transform="translate(403.59555 29.03955)"><tspan x="0" y="0">i</tspan></text><text class="cls-17" transform="translate(398.78793 29.03955)"><tspan x="0" y="0">g</tspan></text><text class="cls-17" transform="translate(394.21762 29.03955)"><tspan x="0" y="0">e</tspan></text><text class="cls-17" transform="translate(388.80844 29.03955)"><tspan x="0" y="0">R</tspan></text><text class="cls-17" transform="translate(265.6102 29.03955)"><tspan x="0" y="0">n</tspan></text><text class="cls-17" transform="translate(260.90609 29.03955)"><tspan x="0" y="0">o</tspan></text><text class="cls-17" transform="translate(258.89437 29.03955)"><tspan x="0" y="0">i</tspan></text><text class="cls-17" transform="translate(255.89242 29.03955)"><tspan x="0" y="0">t</tspan></text><text class="cls-17" transform="translate(251.29965 29.03955)"><tspan x="0" y="0">a</tspan></text><text class="cls-17" transform="translate(248.02816 29.03955)"><tspan x="0" y="0">r</tspan></text><text class="cls-17" transform="translate(245.0267 29.03955)"><tspan x="0" y="0">t</tspan></text><text class="cls-17" transform="translate(241.08236 29.03955)"><tspan x="0" y="0">s</tspan></text><text class="cls-17" transform="translate(239.07064 29.03955)"><tspan x="0" y="0">i</tspan></text><text class="cls-17" transform="translate(234.26352 29.03955)"><tspan x="0" y="0">g</tspan></text><text class="cls-17" transform="translate(229.69369 29.03955)"><tspan x="0" y="0">e</tspan></text><text class="cls-17" transform="translate(224.28451 29.03955)"><tspan x="0" y="0">R</tspan></text><text class="cls-17" transform="translate(101.08627 29.03955)"><tspan x="0" y="0">n</tspan></text><text class="cls-17" transform="translate(96.38168 29.03955)"><tspan x="0" y="0">o</tspan></text><text class="cls-17" transform="translate(94.37045 29.03955)"><tspan x="0" y="0">i</tspan></text><text class="cls-17" transform="translate(91.3685 29.03955)"><tspan x="0" y="0">t</tspan></text><text class="cls-17" transform="translate(86.77475 29.03955)"><tspan x="0" y="0">a</tspan></text><text class="cls-17" transform="translate(83.50424 29.03955)"><tspan x="0" y="0">r</tspan></text><text class="cls-17" transform="translate(80.50229 29.03955)"><tspan x="0" y="0">t</tspan></text><text class="cls-17" transform="translate(76.55844 29.03955)"><tspan x="0" y="0">s</tspan></text><text class="cls-17" transform="translate(74.54672 29.03955)"><tspan x="0" y="0">i</tspan></text><text class="cls-17" transform="translate(69.7391 29.03955)"><tspan x="0" y="0">g</tspan></text><text class="cls-17" transform="translate(65.16928 29.03955)"><tspan x="0" y="0">e</tspan></text><text class="cls-17" transform="translate(59.7601 29.03955)"><tspan x="0" y="0">R</tspan></text><text class="cls-17" transform="translate(20.28061 68.81934)"><tspan x="0" y="0">Openning Remarks(9:50-10:00)</tspan></text><text class="cls-17" transform="translate(350.10043 466.62012)"><tspan x="0" y="0">Closing Remarks (17:30-17:40)</tspan></text><text class="cls-17" transform="translate(344.28012 274.25928)"><tspan x="0" y="0">Emerging Technology Presentation</tspan></text><text class="cls-17" transform="translate(376.07992 287.2793)"><tspan x="0" y="0">（ゲノム⽀援企画）</tspan></text><text class="cls-17" transform="translate(383.40023 300.29883)"><tspan x="0" y="0">(13:00-15:00)</tspan></text><text class="cls-17" transform="translate(30.41977 260.75879)"><tspan x="0" y="0">Keynote:1H (13:00-14:00)</tspan></text><text class="cls-17" transform="translate(23.9393 300.77881)"><tspan class="cls-13" x="0" y="0">R</tspan><tspan class="cls-7" x="5.22412" y="0">o</tspan><tspan x="9.91064" y="0">und </tspan><tspan class="cls-6" x="27.2124" y="0">T</tspan><tspan x="31.36035" y="0">able</tspan><tspan class="cls-10" x="47.35547" y="0">:</tspan><tspan class="cls-4" x="50.76611" y="0">（14</tspan><tspan class="cls-1" x="68.52441" y="0">:</tspan><tspan x="71.93555" y="0">00-15</tspan><tspan class="cls-10" x="95.09229" y="0">:</tspan><tspan class="cls-4" x="98.50293" y="0">00）</tspan></text><text class="cls-17" transform="translate(11.51937 313.79834)"><tspan x="0" y="0">(The 20th anniversary of the Human</tspan></text><text class="cls-17" transform="translate(17.27963 326.81836)"><tspan x="0" y="0">Genome Project Special Program)</tspan></text><text class="cls-17" transform="translate(199.61947 293.99854)"><tspan x="0" y="0">Technology Presentation</tspan></text><text class="cls-17" transform="translate(218.87924 307.01807)"><tspan x="0" y="0">(13:00-15:30)</tspan></text><text class="cls-17" transform="translate(353.39926 353.69775)"><tspan x="0" y="0">Coffee Break &amp; Poster Session</tspan></text><text class="cls-17" transform="translate(380.69906 366.71777)"><tspan x="0" y="0" xml:space="preserve">  (15:00-15:40)</tspan></text><text class="cls-17" transform="translate(192.23861 81.8374)"><tspan x="0" y="0">Session 3 (Disease genome)</tspan></text><text class="cls-17" transform="translate(221.33822 94.85742)"><tspan x="0" y="0">(9:30-11:00)</tspan></text><text class="cls-17" transform="translate(350.8182 108.35742)"><tspan x="0" y="0">Session 5 (Single cell &amp; cancer)</tspan></text><text class="cls-17" transform="translate(385.85824 121.37744)"><tspan x="0" y="0">(9:30-12:00)</tspan></text><text class="cls-17" transform="translate(366.47836 194.69775)"><tspan x="0" y="0">Lunch &amp; Poster Session</tspan></text><text class="cls-17" transform="translate(378.95785 207.71729)"><tspan x="0" y="0">Meet the Experts</tspan></text><text class="cls-17" transform="translate(383.39828 220.73682)"><tspan x="0" y="0">(12:00-13:00)</tspan></text><text class="cls-17" transform="translate(201.95785 194.69678)"><tspan x="0" y="0">Lunch &amp; Poster Session</tspan></text><text class="cls-17" transform="translate(214.43832 207.7168)"><tspan x="0" y="0">Meet the Experts</tspan></text><text class="cls-17" transform="translate(218.87826 220.73633)"><tspan x="0" y="0">(12:00-13:00)</tspan></text><text class="cls-17" transform="translate(37.43832 207.83594)"><tspan x="0" y="0">Lunch &amp; Poster Session</tspan></text><text class="cls-17" transform="translate(54.35873 220.85596)"><tspan x="0" y="0">(12:00-13:00)</tspan></text><text class="cls-17" transform="translate(51.95883 128.27588)"><tspan x="0" y="0">Session 1 (T2T)</tspan></text><text class="cls-17" transform="translate(54.35873 141.29541)"><tspan x="0" y="0">(10:00-12:10)</tspan></text><text class="cls-17" transform="translate(227.33871 148.13525)"><tspan x="0" y="0">Short Talk</tspan></text><text class="cls-17" transform="translate(216.65854 161.15527)"><tspan x="0" y="0">（11:00-12:00)</tspan></text><text class="cls-17" transform="translate(36.23861 506.15527)"><tspan x="0" y="0">Session 2 (Single cell 1)</tspan></text><text class="cls-17" transform="translate(52.97836 519.1748)"><tspan x="0" y="0" xml:space="preserve"> (17:15-19:00)</tspan></text><text class="cls-17" transform="translate(185.81771 532.67383)"><tspan x="0" y="0">Networking &amp; Poster Discussion</tspan></text><text class="cls-17" transform="translate(218.87777 545.69434)"><tspan x="0" y="0">(18:00-20:00)</tspan></text><text class="cls-17" transform="translate(222.95785 466.49414)"><tspan x="0" y="0">Round Table</tspan></text><text class="cls-17" transform="translate(187.61801 479.51367)"><tspan x="0" y="0">(Data Sharing Special Session)</tspan></text><text class="cls-17" transform="translate(217.43783 492.5332)"><tspan x="0" y="0">(17:10~18:00)</tspan></text><text class="cls-17" transform="translate(347.45785 413.33301)"><tspan x="0" y="0">Session 6 (Chromatin regulation)</tspan></text><text class="cls-17" transform="translate(383.39828 426.35352)"><tspan x="0" y="0">(15:40-17:30)</tspan></text><text class="cls-17" transform="translate(189.77816 406.73242)"><tspan x="0" y="0">Session 4 (Genome Medicine)</tspan></text><text class="cls-17" transform="translate(218.87777 419.75293)"><tspan x="0" y="0">(15:30-17:10)</tspan></text><text class="cls-17" transform="translate(24.35775 360.29248)"><tspan x="0" y="0">Coffee Break &amp; Poster Session</tspan></text><text class="cls-17" transform="translate(51.65805 373.3125)"><tspan x="0" y="0" xml:space="preserve">  (15:00-16:00)</tspan></text><text class="cls-17" transform="translate(35.09799 426.5918)"><tspan x="0" y="0">Technology Presentation</tspan></text><text class="cls-17" transform="translate(53.03842 439.6123)"><tspan x="0" y="0" xml:space="preserve"> (16:00-17:15)</tspan></text><rect class="cls-2" x="164.52" y=".65997" width=".66" height="19.20001"/><rect class="cls-2" x="329.04" y=".65997" width=".66" height="19.20001"/><rect x=".66" y="338.10001" width="164.52" height=".66"/><rect x=".66" y="470.69998" width="164.52" height=".66"/><rect width=".66" height="590.7"/><rect x="164.52" y="20.52002" width=".66" height="570.17998"/><rect x="329.04" y="20.52002" width=".66" height="570.17998"/><rect x="493.56002" y=".66003" width=".65997" height="590.03996"/><rect x=".66" width="493.56" height=".65997"/><rect x=".66" y="19.86005" width="493.56" height=".65997"/><rect x=".66" y="33.12006" width="493.56" height=".65997"/><rect x=".66" y="46.38" width="493.56" height=".65997"/><rect x=".66" y="59.64001" width="164.52" height=".65997"/><rect x=".66" y="72.89996" width="164.52" height=".66003"/><rect x="165.18" y="125.94" width="164.52" height=".65997"/><polyline points="165.18 178.97998 494.22 178.97998 494.22 179.64001 165.18 179.64001"/><rect x=".66" y="192.24005" width="164.52" height=".65997"/><rect x=".66" y="232.01996" width="493.56" height=".66003"/><rect x=".66" y="285.06003" width="164.52" height=".65997"/><rect x="329.70001" y="338.10001" width="164.51999" height=".66"/><rect x="165.18" y="364.62003" width="164.52" height=".65997"/><rect x="329.70001" y="377.88" width="164.51999" height=".66"/><rect x=".66" y="391.13998" width="164.52" height=".66"/><polyline points="165.18 457.44 494.22 457.44 494.22 458.10001 165.18 458.10001"/><rect x="329.70001" y="470.69998" width="164.51999" height=".66"/><rect x="165.18" y="497.22003" width="164.52" height=".65997"/><rect x=".66" y="550.25999" width="164.52" height=".66"/><rect x="165.18" y="576.78001" width="164.52" height=".65999"/><rect x=".66" y="590.03999" width="493.56" height=".66"/></svg>